<svg xmlns="http://www.w3.org/2000/svg" viewBox="0 0 595.28 425.94"><defs><style>.cls-1{isolation:isolate;}.cls-2{fill:#1d2b5a;}.cls-3{fill:#650e0d;}.cls-4{fill:#4b5666;}.cls-10,.cls-5{fill:#fff;}.cls-6{fill:#f1f2f2;}.cls-7{fill:#1d2a3f;}.cls-8{fill:#010101;}.cls-9{fill:#a1d4e9;opacity:0.55;}.cls-10,.cls-9{mix-blend-mode:screen;}</style></defs><title>logo1</title><g class="cls-1"><g id="Layer_1" data-name="Layer 1"><path class="cls-2" d="M355.42,218.44v26.37h-7.13V230.76l-10.5,14.05h-5.63V218.44h7.13v14.13l10.44-14.13Z"/><path class="cls-2" d="M379.46,224.47v20.34h-7v-7.17H366.9v7.17h-7V224.47h7v7h5.58v-7Z"/><path class="cls-2" d="M394,245.48c-6.52,0-11.23-4.57-11.23-10.87s4.68-10.78,11.25-10.78c5.72,0,10,3.61,10.77,9h-6.82a4.13,4.13,0,0,0-4-2.74,4.2,4.2,0,0,0-4.21,4.52A4.25,4.25,0,0,0,394,239.2a4.1,4.1,0,0,0,4-3h6.89A10.56,10.56,0,0,1,394,245.48Z"/><path class="cls-2" d="M425.61,230.52h-6.4v14.29h-6.87V230.52h-6.41v-6.05h19.68Z"/><path class="cls-2" d="M447.43,224.47v20.34h-6.75v-9.13l-8.19,9.13h-4.11V224.47h6.76v9l8.25-9Z"/><path class="cls-2" d="M469.92,230.52h-6.4v14.29h-6.87V230.52h-6.41v-6.05h19.68Z"/><path class="cls-2" d="M494,224.47l-8.52,19.44c-2.74,6.22-5.27,8.47-10.52,8.47h-2.4v-6h1.93c2.68,0,3.49-.7,4.44-3.23l-8.41-18.66h7.62l4.31,11.2,4-11.2Z"/><path class="cls-2" d="M517.67,238.76v10.81h-6v-4.76H496.06V224.47H503v14.29h5.08V224.47H515v14.29Z"/><path class="cls-2" d="M540.16,224.47v20.34h-6.75v-9.13l-8.19,9.13h-4.11V224.47h6.76v9l8.25-9Z"/><path class="cls-2" d="M563.63,224.47v20.34h-6.75v-9.13l-8.18,9.13h-4.11V224.47h6.75v9l8.25-9Z"/><path class="cls-2" d="M351.35,269.68V290h-7V275.69H338.8V290h-7V269.68Z"/><path class="cls-2" d="M354.59,279.85c0-6.3,4.78-10.83,11.41-10.83s11.4,4.53,11.4,10.83-4.79,10.84-11.4,10.84S354.59,286.14,354.59,279.85Zm15.8,0A4.39,4.39,0,1,0,366,284.4,4.29,4.29,0,0,0,370.39,279.85Z"/><path class="cls-2" d="M402.58,283.84v11h-6V290H384.9v4.76h-6v-11h2.26c1.31-1.39,1.77-4.18,2.67-14.16H400v14.16Zm-14.6,0h5.53v-8.3h-3.77C389.41,279.91,388.88,282.39,388,283.84Z"/><path class="cls-2" d="M433.87,269.68V290H427V275.55H423.8l-.58,5.78c-.65,6.22-3.48,8.78-8.7,8.78h-1.81v-5.77h.89c1.89,0,2.83-.94,3.08-3.21L418,269.68Z"/><path class="cls-2" d="M459.56,269.68,451,289.12c-2.75,6.23-5.27,8.48-10.52,8.48h-2.4v-6h1.93c2.68,0,3.49-.7,4.44-3.23l-8.41-18.67h7.61L448,280.89l4-11.21Z"/><path class="cls-2" d="M481.19,269.68V290h-7V275.69h-5.57V290h-7V269.68Z"/><path class="cls-2" d="M507.27,269.66V290h-5.41l-.6-1.43a9.64,9.64,0,0,1-6.14,2.12c-6.22,0-10.67-4.54-10.67-10.86s4.45-10.78,10.67-10.78a9.68,9.68,0,0,1,6.21,2.18l.72-1.57Zm-6.66,10.19a4.56,4.56,0,1,0-4.56,4.64A4.48,4.48,0,0,0,500.61,279.85Z"/><rect class="cls-3" x="206.63" y="280.97" width="113.87" height="10.78"/><rect class="cls-4" x="210.22" y="276.2" width="106.68" height="4.77"/><rect class="cls-3" x="213.75" y="211.75" width="99.63" height="64.46"/><polygon class="cls-3" points="205.29 211.9 263.56 180.98 321.83 211.9 205.29 211.9"/><rect class="cls-4" x="205.29" y="211.9" width="116.55" height="2.75"/><path class="cls-5" d="M271.47,273.57v-22.9a7.86,7.86,0,0,0-7.91-7.81h0a7.86,7.86,0,0,0-7.91,7.81v22.9Z"/><rect class="cls-6" x="253.94" y="273.57" width="19.25" height="2.63"/><rect class="cls-7" x="221.99" y="214.65" width="10.17" height="61.56"/><rect class="cls-5" x="224.09" y="214.65" width="0.31" height="61.56"/><rect class="cls-5" x="226.92" y="214.65" width="0.31" height="61.56"/><rect class="cls-5" x="229.74" y="214.65" width="0.31" height="61.56"/><rect class="cls-7" x="293.41" y="214.65" width="10.17" height="61.56"/><rect class="cls-5" x="295.51" y="214.65" width="0.31" height="61.56"/><rect class="cls-5" x="298.34" y="214.65" width="0.31" height="61.56"/><rect class="cls-5" x="301.16" y="214.65" width="0.31" height="61.56"/><rect class="cls-2" x="96.61" y="285.12" width="160.25" height="15.18"/><rect class="cls-4" x="101.67" y="278.41" width="150.14" height="6.71"/><rect class="cls-2" x="106.63" y="187.7" width="140.22" height="90.71"/><polygon class="cls-2" points="94.73 187.91 176.74 144.4 258.75 187.91 94.73 187.91"/><rect class="cls-4" x="94.73" y="187.91" width="164.02" height="3.87"/><path class="cls-5" d="M187.87,274.71V242.48a11.06,11.06,0,0,0-11.13-11h0a11.06,11.06,0,0,0-11.13,11v32.23Z"/><rect class="cls-6" x="163.19" y="274.71" width="27.09" height="3.71"/><rect class="cls-7" x="118.23" y="191.78" width="14.31" height="86.63"/><rect class="cls-5" x="121.19" y="191.78" width="0.44" height="86.63"/><rect class="cls-5" x="125.16" y="191.78" width="0.44" height="86.63"/><rect class="cls-5" x="129.14" y="191.78" width="0.44" height="86.63"/><rect class="cls-7" x="218.74" y="191.78" width="14.31" height="86.63"/><rect class="cls-5" x="221.7" y="191.78" width="0.44" height="86.63"/><rect class="cls-5" x="225.68" y="191.78" width="0.44" height="86.63"/><rect class="cls-5" x="229.65" y="191.78" width="0.44" height="86.63"/><path class="cls-8" d="M44,219.36l80.18,35.82c2.3,1,5.1.07,7-2.16h0a13.72,13.72,0,0,0,1.43-2.43l5-11.25.49-1c1-2.36-.48-5.32-3.41-6.66L54.54,195.84c-2.95-1.34-6.21-.5-7.24,1.87l-.47,1.06-5,11.2a16.16,16.16,0,0,0-.87,2.69l0,0C40.53,215.57,41.68,218.32,44,219.36Z"/><path class="cls-9" d="M131.93,247.45a59.72,59.72,0,1,1,30.12,78.88A59.73,59.73,0,0,1,131.93,247.45Z"/><path class="cls-8" d="M158.81,332a66,66,0,1,0-33.37-87.3A66.08,66.08,0,0,0,158.81,332Zm49.46-110.73a55.21,55.21,0,1,1-72.93,27.88A55.2,55.2,0,0,1,208.27,221.24Z"/><path class="cls-10" d="M228.67,270.5c1.26,26.86-16.3,49.7-39.74,52.68a24.25,24.25,0,0,0,3.41,0c25.12-1.16,44.43-24.85,43.15-53s-22.7-50-47.84-48.75a31.39,31.39,0,0,0-3.39.31C207.86,222.61,227.44,243.65,228.67,270.5Z"/></g></g></svg>